<svg width="200" height="200" viewBox="0 0 200 200" fill="none" xmlns="http://www.w3.org/2000/svg">
<rect width="200" height="200" rx="60" fill="black"/>
<path d="M70.5873 63.5C80.5179 63.5 88.4623 66.1481 94.4206 71.4444C96.8607 73.6008 98.6009 75.7761 99.6413 77.9702C100.701 80.1455 101.23 82.8882 101.23 86.1984C101.23 88.7142 100.341 90.861 98.5631 92.6391C96.804 94.3982 94.6665 95.2778 92.1508 95.2778C89.6351 95.2778 87.4882 94.3982 85.7101 92.6391C83.951 90.861 83.0714 88.7142 83.0714 86.1984C83.0714 84.9122 83.3268 83.7016 83.8375 82.5667C84.3482 81.4128 85.0575 80.4103 85.9655 79.5591C84.6036 77.0245 82.7593 75.2275 80.4327 74.1683C78.1251 73.109 75.2216 72.5794 71.7222 72.5794C69.4335 72.5794 67.3055 73.0428 65.3383 73.9696C63.39 74.8965 61.6971 76.1922 60.2595 77.8567C58.8409 79.5213 57.6208 81.4885 56.5994 83.7583C55.578 86.0282 54.8119 88.525 54.3012 91.2488C53.8094 93.9537 53.5635 96.8099 53.5635 99.8175C53.5635 102.787 53.8661 105.643 54.4714 108.386C55.0767 111.129 55.9563 113.626 57.1101 115.877C58.264 118.128 59.6164 120.095 61.1675 121.778C62.7185 123.443 64.4966 124.738 66.5016 125.665C68.5255 126.592 70.644 127.056 72.8571 127.056C76.0728 127.056 79.0614 126.195 81.823 124.474C84.6036 122.752 86.9018 120.341 88.7177 117.238C90.5524 114.117 91.6968 110.58 92.1508 106.627L101.23 108.897C100.776 111.11 100.247 113.172 99.6413 115.082C99.036 116.974 98.2794 118.865 97.3714 120.757C96.4635 122.629 95.4326 124.322 94.2788 125.836C93.1249 127.349 91.763 128.758 90.1931 130.063C88.6231 131.368 86.8923 132.465 85.0008 133.354C83.1093 134.224 80.9435 134.905 78.5034 135.397C76.0633 135.889 73.4246 136.135 70.5873 136.135C67.2015 136.135 63.9669 135.776 60.8837 135.057C57.8194 134.357 55.0389 133.373 52.5421 132.106C50.0642 130.839 47.7754 129.325 45.6758 127.566C43.5762 125.807 41.7603 123.868 40.2282 121.75C38.696 119.612 37.3909 117.352 36.3127 114.969C35.2534 112.566 34.459 110.098 33.9294 107.563C33.3997 105.01 33.1349 102.428 33.1349 99.8175C33.1349 97.2071 33.3997 94.6347 33.9294 92.1C34.459 89.5464 35.2534 87.078 36.3127 84.6946C37.3909 82.2924 38.696 80.032 40.2282 77.9135C41.7603 75.7761 43.5762 73.8278 45.6758 72.0687C47.7754 70.3095 50.0642 68.7963 52.5421 67.529C55.0389 66.2616 57.8194 65.278 60.8837 64.5782C63.9669 63.8594 67.2015 63.5 70.5873 63.5ZM125.063 73.7143V64.6349H163.651V73.7143H154.571V113.437C154.571 118.033 153.503 122.052 151.365 125.495C149.228 128.919 146.192 131.548 142.258 133.383C138.323 135.218 133.727 136.135 128.468 136.135C126.312 136.135 124.174 135.936 122.056 135.539C119.937 135.142 117.809 134.461 115.672 133.496C113.554 132.513 111.681 131.312 110.054 129.893C108.446 128.455 107.141 126.621 106.139 124.388C105.136 122.138 104.635 119.622 104.635 116.841C104.635 114.326 105.514 112.188 107.274 110.429C109.052 108.651 111.199 107.762 113.714 107.762C116.23 107.762 118.367 108.651 120.127 110.429C121.905 112.188 122.794 114.326 122.794 116.841C122.794 118.638 122.311 120.274 121.347 121.75C120.401 123.225 119.143 124.332 117.573 125.069C119.502 126.394 121.999 127.056 125.063 127.056C126.52 127.056 127.91 126.772 129.234 126.204C130.577 125.618 131.788 124.776 132.866 123.679C133.944 122.582 134.805 121.154 135.448 119.395C136.091 117.617 136.413 115.631 136.413 113.437V73.7143H125.063Z" fill="white"/>
</svg>
