<svg width="505" height="205" viewBox="0 0 505 205" fill="none" xmlns="http://www.w3.org/2000/svg">
<rect width="504.615" height="205" rx="60" fill="black"/>
<path d="M85.9383 122.17V115.973H112.276V122.17H106.079V149.282C106.079 152.419 105.349 155.163 103.89 157.512C102.431 159.849 100.359 161.644 97.6739 162.896C94.9885 164.148 91.8513 164.775 88.2622 164.775C86.7904 164.775 85.3315 164.639 83.8855 164.368C82.4395 164.097 80.9871 163.632 79.5282 162.974C78.0823 162.302 76.8041 161.482 75.6938 160.514C74.5964 159.533 73.7056 158.281 73.0213 156.757C72.3371 155.221 71.995 153.504 71.995 151.606C71.995 149.889 72.5953 148.43 73.796 147.229C75.0096 146.016 76.4749 145.409 78.192 145.409C79.9091 145.409 81.368 146.016 82.5686 147.229C83.7822 148.43 84.389 149.889 84.389 151.606C84.389 152.832 84.0598 153.949 83.4014 154.956C82.7558 155.963 81.8973 156.718 80.8257 157.222C82.1426 158.126 83.8468 158.578 85.9383 158.578C86.9324 158.578 87.8813 158.384 88.785 157.997C89.7017 157.596 90.5279 157.022 91.2638 156.273C91.9997 155.524 92.5872 154.55 93.0261 153.349C93.4651 152.135 93.6846 150.78 93.6846 149.282V122.17H85.9383ZM146.747 115.973H166.887V122.17H160.69V147.733C160.69 149.489 160.503 151.173 160.128 152.787C159.754 154.401 159.141 155.944 158.289 157.416C157.449 158.875 156.41 160.146 155.171 161.231C153.944 162.315 152.408 163.18 150.562 163.826C148.715 164.458 146.669 164.775 144.423 164.775C139.543 164.775 135.553 164.084 132.455 162.702C129.356 161.308 127.09 159.255 125.657 156.544C124.224 153.82 123.508 150.367 123.508 146.184V122.17H117.311V115.973H142.099V122.17H135.902V146.184C135.902 147.591 136.005 148.888 136.212 150.076C136.431 151.264 136.715 152.277 137.064 153.116C137.412 153.943 137.838 154.685 138.342 155.344C138.845 155.989 139.368 156.512 139.911 156.912C140.453 157.312 141.034 157.642 141.653 157.9C142.286 158.158 142.886 158.339 143.454 158.442C144.022 158.532 144.603 158.578 145.197 158.578C146.708 158.578 148.057 158.306 149.245 157.764C150.445 157.209 151.42 156.447 152.169 155.479C152.931 154.498 153.505 153.355 153.893 152.051C154.293 150.734 154.493 149.295 154.493 147.733V122.17H146.747V115.973ZM171.535 164V157.803H177.732V122.17H171.535V115.973H191.675C196.362 115.973 200.035 116.122 202.694 116.418C205.367 116.715 207.445 117.18 208.93 117.813C210.428 118.432 211.802 119.368 213.055 120.621C214.178 121.744 215.024 123.158 215.592 124.862C216.173 126.553 216.463 128.367 216.463 130.304C216.463 136.333 213.552 140.58 207.729 143.046C209.859 144.867 211.222 147.72 211.815 151.606C211.88 152.019 211.957 152.555 212.048 153.213C212.138 153.859 212.209 154.362 212.261 154.724C212.312 155.072 212.383 155.492 212.474 155.983C212.564 156.46 212.648 156.828 212.726 157.086C212.803 157.345 212.9 157.603 213.016 157.861C213.132 158.119 213.261 158.306 213.403 158.423C213.558 158.526 213.726 158.578 213.907 158.578C214.307 158.578 214.649 158.397 214.933 158.035C215.23 157.674 215.469 157.138 215.65 156.428C215.831 155.705 215.966 155.047 216.056 154.453C216.147 153.859 216.25 153.084 216.366 152.129C216.392 151.896 216.412 151.722 216.424 151.606L221.886 152.168C221.756 153.42 221.64 154.395 221.537 155.092C221.447 155.789 221.292 156.654 221.072 157.687C220.853 158.72 220.601 159.52 220.317 160.088C220.033 160.656 219.639 161.289 219.136 161.986C218.645 162.67 218.071 163.187 217.412 163.535C216.754 163.871 215.94 164.161 214.972 164.407C214.017 164.652 212.932 164.775 211.719 164.775C210.841 164.775 210.034 164.736 209.298 164.658C208.562 164.581 207.878 164.452 207.245 164.271C206.625 164.09 206.057 163.89 205.541 163.671C205.024 163.451 204.54 163.154 204.088 162.78C203.637 162.406 203.23 162.031 202.868 161.657C202.52 161.269 202.178 160.785 201.842 160.204C201.506 159.623 201.209 159.062 200.951 158.52C200.706 157.964 200.441 157.293 200.157 156.505C199.873 155.705 199.621 154.943 199.402 154.22C199.182 153.497 198.931 152.626 198.647 151.606C198.298 150.367 197.969 149.392 197.659 148.682C197.362 147.959 196.981 147.333 196.516 146.803C196.052 146.274 195.497 145.912 194.851 145.719C194.218 145.512 193.418 145.409 192.45 145.409H190.126V157.803H196.323V164H171.535ZM190.126 139.212H193.224C199.421 139.212 202.52 136.372 202.52 130.691C202.52 129.71 202.449 128.819 202.307 128.019C202.178 127.218 201.932 126.443 201.571 125.695C201.209 124.946 200.745 124.32 200.177 123.816C199.609 123.313 198.866 122.912 197.95 122.615C197.033 122.319 195.974 122.17 194.774 122.17H190.126V139.212ZM230 111.112L239.295 101.817C240.186 100.926 241.258 100.48 242.51 100.48C243.762 100.48 244.834 100.926 245.725 101.817C246.616 102.708 247.061 103.779 247.061 105.031C247.061 106.064 246.745 106.987 246.112 107.801C245.492 108.614 244.685 109.156 243.691 109.427L230.987 112.836C230.884 112.862 230.794 112.875 230.716 112.875C230.432 112.875 230.187 112.778 229.98 112.584C229.787 112.377 229.69 112.132 229.69 111.848C229.69 111.564 229.793 111.319 230 111.112ZM224.597 115.973H249.385V122.17H243.188V157.803H249.385V164H224.597V157.803H230.794V122.17H224.597V115.973ZM278.821 164H254.033V157.803H260.23V122.17H254.033V115.973H278.821C281.596 115.973 284.217 116.283 286.683 116.903C289.149 117.509 291.331 118.361 293.229 119.459C295.14 120.543 296.85 121.834 298.361 123.332C299.884 124.83 301.136 126.469 302.118 128.251C303.112 130.033 303.867 131.917 304.383 133.906C304.9 135.881 305.158 137.908 305.158 139.987C305.158 142.065 304.9 144.099 304.383 146.087C303.867 148.062 303.112 149.94 302.118 151.722C301.136 153.504 299.884 155.143 298.361 156.641C296.85 158.139 295.14 159.436 293.229 160.534C291.331 161.618 289.149 162.47 286.683 163.09C284.217 163.697 281.596 164 278.821 164ZM278.821 157.803C280.835 157.803 282.636 157.358 284.224 156.467C285.812 155.563 287.109 154.311 288.116 152.71C289.136 151.109 289.904 149.237 290.421 147.094C290.95 144.938 291.215 142.569 291.215 139.987C291.215 137.921 291.06 135.997 290.75 134.216C290.44 132.434 289.956 130.801 289.298 129.316C288.639 127.818 287.826 126.547 286.858 125.501C285.902 124.442 284.74 123.622 283.372 123.042C282.003 122.461 280.486 122.17 278.821 122.17H272.624V157.803H278.821ZM307.869 115.973H332.657V122.17H326.46V157.803H332.657V164H307.869V157.803H314.066V122.17H307.869V115.973ZM361.319 115.198C368.097 115.198 373.519 117.006 377.586 120.621C379.251 122.093 380.439 123.577 381.149 125.075C381.872 126.56 382.234 128.432 382.234 130.691C382.234 132.408 381.627 133.873 380.413 135.087C379.213 136.288 377.754 136.888 376.037 136.888C374.32 136.888 372.854 136.288 371.641 135.087C370.44 133.873 369.84 132.408 369.84 130.691C369.84 129.813 370.014 128.987 370.362 128.212C370.711 127.425 371.195 126.74 371.815 126.159C370.885 124.429 369.627 123.203 368.039 122.48C366.463 121.757 364.482 121.395 362.093 121.395C360.531 121.395 359.079 121.712 357.736 122.344C356.406 122.977 355.251 123.861 354.27 124.997C353.301 126.134 352.469 127.476 351.771 129.026C351.074 130.575 350.551 132.279 350.203 134.138C349.867 135.984 349.699 137.934 349.699 139.987C349.699 142.013 349.906 143.963 350.319 145.835C350.732 147.707 351.332 149.411 352.12 150.948C352.907 152.484 353.831 153.827 354.889 154.976C355.948 156.112 357.161 156.996 358.53 157.629C359.911 158.261 361.357 158.578 362.868 158.578C365.063 158.578 367.103 157.99 368.987 156.815C370.885 155.64 372.454 153.994 373.693 151.877C374.946 149.747 375.727 147.333 376.037 144.634L382.234 146.184C381.924 147.694 381.562 149.101 381.149 150.405C380.736 151.696 380.22 152.987 379.6 154.278C378.98 155.557 378.277 156.712 377.489 157.745C376.701 158.778 375.772 159.74 374.7 160.63C373.629 161.521 372.447 162.27 371.156 162.877C369.865 163.471 368.387 163.935 366.722 164.271C365.056 164.607 363.255 164.775 361.319 164.775C359.008 164.775 356.8 164.529 354.696 164.039C352.604 163.561 350.706 162.89 349.002 162.025C347.311 161.16 345.749 160.127 344.316 158.926C342.883 157.726 341.643 156.402 340.597 154.956C339.552 153.497 338.661 151.955 337.925 150.328C337.202 148.688 336.66 147.003 336.298 145.273C335.937 143.53 335.756 141.768 335.756 139.987C335.756 138.205 335.937 136.449 336.298 134.719C336.66 132.976 337.202 131.291 337.925 129.665C338.661 128.025 339.552 126.482 340.597 125.036C341.643 123.577 342.883 122.248 344.316 121.047C345.749 119.846 347.311 118.813 349.002 117.948C350.706 117.083 352.604 116.412 354.696 115.934C356.8 115.444 359.008 115.198 361.319 115.198ZM405.86 115.973H414.381L432.914 157.803H437.62V164H412.831V157.803H419.028L416.279 151.606H398.772L396.196 157.803H408.184V164H383.396V157.803H388.45L405.86 115.973ZM401.348 145.409H413.529L408.726 134.564C408.106 133.144 407.616 131.75 407.254 130.381C406.751 132.163 406.286 133.557 405.86 134.564L401.348 145.409Z" fill="white"/>
<path d="M84.3374 40.1984C91.1154 40.1984 96.5378 42.0059 100.605 45.6208C102.27 47.0926 103.458 48.5773 104.168 50.0749C104.891 51.5596 105.252 53.4316 105.252 55.691C105.252 57.4081 104.646 58.8734 103.432 60.087C102.231 61.2877 100.772 61.888 99.0553 61.888C97.3382 61.888 95.8729 61.2877 94.6593 60.087C93.4586 58.8734 92.8583 57.4081 92.8583 55.691C92.8583 54.8131 93.0326 53.9868 93.3812 53.2122C93.7297 52.4246 94.2139 51.7404 94.8336 51.1594C93.904 49.4294 92.6453 48.2029 91.0573 47.4799C89.4822 46.7569 87.5004 46.3954 85.112 46.3954C83.5498 46.3954 82.0974 46.7117 80.7547 47.3444C79.4249 47.977 78.2694 48.8613 77.2882 49.9975C76.32 51.1336 75.4872 52.4763 74.7901 54.0255C74.0929 55.5748 73.57 57.279 73.2214 59.1381C72.8858 60.9843 72.7179 62.9338 72.7179 64.9865C72.7179 67.0135 72.9245 68.9629 73.3376 70.835C73.7508 72.707 74.3511 74.4112 75.1387 75.9475C75.9262 77.4839 76.8493 78.8265 77.9079 79.9756C78.9666 81.1117 80.1802 81.9961 81.5487 82.6287C82.9301 83.2613 84.3761 83.5776 85.8866 83.5776C88.0814 83.5776 90.1213 82.9902 92.0062 81.8153C93.904 80.6405 95.4726 78.9944 96.7121 76.8771C97.9644 74.7468 98.7455 72.3326 99.0553 69.6343L105.252 71.1835C104.942 72.6941 104.581 74.1013 104.168 75.4053C103.755 76.6963 103.238 77.9874 102.619 79.2784C101.999 80.5566 101.295 81.712 100.508 82.7449C99.7202 83.7777 98.7906 84.7395 97.7191 85.6304C96.6475 86.5212 95.4662 87.27 94.1751 87.8768C92.8841 88.4707 91.4058 88.9354 89.7404 89.2711C88.0749 89.6068 86.2739 89.7746 84.3374 89.7746C82.0264 89.7746 79.8187 89.5293 77.7143 89.0387C75.6228 88.561 73.725 87.8897 72.0208 87.0247C70.3295 86.1597 68.7673 85.1269 67.3343 83.9262C65.9012 82.7255 64.6618 81.4022 63.6161 79.9562C62.5703 78.4973 61.6795 76.9545 60.9436 75.3278C60.2206 73.6882 59.6784 72.0034 59.3169 70.2734C58.9554 68.5304 58.7746 66.7682 58.7746 64.9865C58.7746 63.2049 58.9554 61.4491 59.3169 59.719C59.6784 57.9761 60.2206 56.2913 60.9436 54.6646C61.6795 53.025 62.5703 51.4822 63.6161 50.0362C64.6618 48.5773 65.9012 47.2475 67.3343 46.0469C68.7673 44.8462 70.3295 43.8133 72.0208 42.9483C73.725 42.0833 75.6228 41.412 77.7143 40.9343C79.8187 40.4437 82.0264 40.1984 84.3374 40.1984ZM127.678 40.9343C129.782 40.4437 131.99 40.1984 134.301 40.1984C136.612 40.1984 138.813 40.4437 140.905 40.9343C143.009 41.412 144.907 42.0833 146.598 42.9483C148.302 43.8133 149.871 44.8462 151.304 46.0469C152.737 47.2475 153.976 48.5773 155.022 50.0362C156.068 51.4822 156.952 53.025 157.675 54.6646C158.411 56.2913 158.96 57.9761 159.321 59.719C159.683 61.4491 159.864 63.2049 159.864 64.9865C159.864 66.7682 159.683 68.5304 159.321 70.2734C158.96 72.0034 158.411 73.6882 157.675 75.3278C156.952 76.9545 156.068 78.4973 155.022 79.9562C153.976 81.4022 152.737 82.7255 151.304 83.9262C149.871 85.1269 148.302 86.1597 146.598 87.0247C144.907 87.8897 143.009 88.561 140.905 89.0387C138.813 89.5293 136.612 89.7746 134.301 89.7746C131.99 89.7746 129.782 89.5293 127.678 89.0387C125.586 88.561 123.688 87.8897 121.984 87.0247C120.293 86.1597 118.731 85.1269 117.298 83.9262C115.865 82.7255 114.625 81.4022 113.58 79.9562C112.534 78.4973 111.643 76.9545 110.907 75.3278C110.184 73.6882 109.642 72.0034 109.28 70.2734C108.919 68.5304 108.738 66.7682 108.738 64.9865C108.738 63.2049 108.919 61.4491 109.28 59.719C109.642 57.9761 110.184 56.2913 110.907 54.6646C111.643 53.025 112.534 51.4822 113.58 50.0362C114.625 48.5773 115.865 47.2475 117.298 46.0469C118.731 44.8462 120.293 43.8133 121.984 42.9483C123.688 42.0833 125.586 41.412 127.678 40.9343ZM138.561 47.3637C137.283 46.7182 135.863 46.3954 134.301 46.3954C132.739 46.3954 131.312 46.7182 130.021 47.3637C128.743 47.9963 127.652 48.8743 126.748 49.9975C125.857 51.1207 125.102 52.4698 124.482 54.0449C123.863 55.6071 123.404 57.3048 123.108 59.1381C122.823 60.9714 122.681 62.9208 122.681 64.9865C122.681 67.5686 122.927 69.9764 123.417 72.2099C123.921 74.4305 124.644 76.3929 125.586 78.0971C126.529 79.8013 127.742 81.144 129.227 82.1252C130.725 83.0935 132.416 83.5776 134.301 83.5776C136.186 83.5776 137.871 83.0935 139.355 82.1252C140.853 81.144 142.073 79.8013 143.015 78.0971C143.958 76.3929 144.674 74.4305 145.165 72.2099C145.669 69.9764 145.92 67.5686 145.92 64.9865C145.92 62.9208 145.772 60.9714 145.475 59.1381C145.191 57.3048 144.739 55.6071 144.119 54.0449C143.5 52.4698 142.738 51.1207 141.834 49.9975C140.943 48.8743 139.852 47.9963 138.561 47.3637ZM162.962 40.973H180.198L200.144 64.4443V47.1701H193.947V40.973H214.088V47.1701H207.891V89H203.243L176.905 58.0149V82.803H183.102V89H162.962V82.803H169.159V47.1701H162.962V40.973ZM230.742 51.8178C230.742 53.0443 231.026 54.1482 231.594 55.1294C232.162 56.0977 232.924 56.911 233.879 57.5695C234.835 58.2279 235.932 58.8347 237.172 59.3898C238.411 59.945 239.715 60.4743 241.083 60.9778C242.452 61.4684 243.82 61.9848 245.189 62.5271C246.557 63.0564 247.861 63.6955 249.101 64.4443C250.34 65.1802 251.438 66.0129 252.393 66.9425C253.348 67.8591 254.11 69.0146 254.678 70.4089C255.246 71.7903 255.53 73.3396 255.53 75.0567C255.53 77.1611 255.065 79.1235 254.136 80.9439C253.206 82.7642 251.928 84.3264 250.301 85.6304C248.688 86.9214 246.725 87.9349 244.414 88.6708C242.103 89.4067 239.612 89.7746 236.939 89.7746C235.906 89.7746 234.815 89.7036 233.666 89.5616C232.53 89.4325 231.323 89.2066 230.045 88.8838C228.78 88.561 227.56 88.1673 226.385 87.7025C225.21 87.2377 224.08 86.6503 222.996 85.9402C221.924 85.2172 220.988 84.4168 220.188 83.5389C219.387 82.661 218.748 81.6281 218.271 80.4404C217.806 79.2397 217.573 77.9615 217.573 76.6059C217.573 74.8889 218.174 73.43 219.374 72.2293C220.588 71.0157 222.053 70.4089 223.77 70.4089C225.488 70.4089 226.946 71.0157 228.147 72.2293C229.361 73.43 229.967 74.8889 229.967 76.6059C229.967 77.7162 229.696 78.7426 229.154 79.6851C228.625 80.6146 227.902 81.357 226.985 81.9122C228.922 83.0225 231.465 83.5776 234.615 83.5776C237.417 83.5776 239.534 83.1451 240.967 82.2801C242.413 81.4151 243.136 80.0401 243.136 78.1552C243.136 76.9287 242.852 75.8313 242.284 74.863C241.716 73.8818 240.954 73.062 239.999 72.4036C239.044 71.7452 237.946 71.1384 236.707 70.5832C235.467 70.0281 234.163 69.5052 232.795 69.0146C231.426 68.5111 230.058 67.9947 228.689 67.4653C227.321 66.9231 226.017 66.284 224.777 65.5481C223.538 64.7993 222.441 63.9666 221.485 63.0499C220.53 62.1204 219.768 60.9649 219.2 59.5835C218.632 58.1892 218.348 56.6334 218.348 54.9164C218.348 52.799 218.768 50.8366 219.607 49.0292C220.459 47.2088 221.647 45.6531 223.17 44.362C224.706 43.0581 226.591 42.0382 228.825 41.3023C231.058 40.5664 233.505 40.1984 236.165 40.1984C237.197 40.1984 238.269 40.2694 239.379 40.4114C240.502 40.5405 241.671 40.7665 242.884 41.0892C244.111 41.412 245.286 41.8058 246.409 42.2705C247.532 42.7353 248.604 43.3292 249.624 44.0522C250.657 44.7623 251.547 45.5563 252.296 46.4342C253.045 47.3121 253.639 48.3449 254.078 49.5327C254.53 50.7204 254.756 51.9986 254.756 53.3671C254.756 55.0842 254.149 56.5495 252.935 57.7631C251.735 58.9638 250.276 59.5641 248.559 59.5641C246.841 59.5641 245.376 58.9638 244.163 57.7631C242.962 56.5495 242.362 55.0842 242.362 53.3671C242.362 52.2181 242.652 51.1659 243.233 50.2105C243.814 49.2422 244.582 48.4869 245.538 47.9447C243.82 46.9119 241.471 46.3954 238.488 46.3954C235.764 46.3954 233.789 46.8215 232.563 47.6736C231.349 48.5128 230.742 49.8942 230.742 51.8178ZM288.065 40.973H308.205V47.1701H302.008V72.7328C302.008 74.4886 301.821 76.1734 301.446 77.7873C301.072 79.4011 300.459 80.9439 299.607 82.4157C298.767 83.8745 297.728 85.1462 296.489 86.2307C295.262 87.3152 293.726 88.1802 291.88 88.8257C290.033 89.4583 287.987 89.7746 285.741 89.7746C280.861 89.7746 276.871 89.0839 273.773 87.7025C270.674 86.3082 268.408 84.2554 266.975 81.5442C265.542 78.8201 264.826 75.3665 264.826 71.1835V47.1701H258.629V40.973H283.417V47.1701H277.22V71.1835C277.22 72.5908 277.323 73.8883 277.53 75.0761C277.749 76.2638 278.033 77.2773 278.382 78.1165C278.73 78.9427 279.156 79.6851 279.66 80.3435C280.163 80.9891 280.686 81.5119 281.229 81.9122C281.771 82.3124 282.352 82.6416 282.971 82.8998C283.604 83.158 284.204 83.3388 284.772 83.442C285.341 83.5324 285.921 83.5776 286.515 83.5776C288.026 83.5776 289.375 83.3065 290.563 82.7642C291.763 82.2091 292.738 81.4474 293.487 80.4791C294.249 79.4979 294.823 78.3553 295.211 77.0514C295.611 75.7345 295.811 74.295 295.811 72.7328V47.1701H288.065V40.973ZM312.853 40.973H339.19V47.1701H331.444V82.803H343.838C344.38 82.803 344.864 82.5964 345.29 82.1833C345.716 81.7572 346.039 81.215 346.259 80.5566C346.491 79.8981 346.659 79.2332 346.762 78.5619C346.878 77.8905 346.936 77.2386 346.936 76.6059V70.4089H353.908V89H312.853V82.803H319.05V47.1701H312.853V40.973ZM350.732 40.973H395.661V56.4656H388.689V53.3671C388.689 52.7345 388.631 52.0825 388.515 51.4112C388.411 50.7398 388.243 50.0749 388.011 49.4165C387.792 48.7581 387.469 48.2223 387.043 47.8091C386.617 47.3831 386.133 47.1701 385.59 47.1701H379.393V82.803H385.59V89H360.802V82.803H366.999V47.1701H360.802C360.26 47.1701 359.776 47.3831 359.35 47.8091C358.924 48.2223 358.595 48.7581 358.362 49.4165C358.143 50.0749 357.975 50.7398 357.859 51.4112C357.755 52.0825 357.704 52.7345 357.704 53.3671V56.4656H350.732V40.973ZM413.09 40.973H421.611L440.144 82.803H444.849V89H420.061V82.803H426.258L423.508 76.6059H406.002L403.426 82.803H415.414V89H390.625V82.803H395.68L413.09 40.973ZM408.577 70.4089H420.758L415.956 59.5641C415.336 58.144 414.845 56.7496 414.484 55.3811C413.98 57.1628 413.516 58.5571 413.09 59.5641L408.577 70.4089Z" fill="white"/>
</svg>
